<?xml version="1.0" encoding="utf-8"?>
<!-- Generator: Adobe Illustrator 25.3.1, SVG Export Plug-In . SVG Version: 6.00 Build 0)  -->
<svg version="1.1" id="Capa_1" xmlns="http://www.w3.org/2000/svg" xmlns:xlink="http://www.w3.org/1999/xlink" x="0px" y="0px"
	 viewBox="0 0 496.6 496.6" style="enable-background:new 0 0 496.6 496.6;" xml:space="preserve">
<style type="text/css">
	.st0{fill:#FFFFFF;}
</style>
<g>
	<g>
		<path class="st0" d="M400.3,328v-51.7l-21.8,8.5l-0.1-0.1l-0.5-0.9c-8.4-13-21.9-22.1-37.1-24.8l-52.5-9.6v-4.1
			c19.6-11.4,34-30.8,38.5-53.8c14.5-3,25.5-15.9,25.5-31.3V81c0-22.3-14.6-41.8-35.8-48.1l-4-4C293.8,10.2,269.1,0,242.8,0
			c-54.3,0-98.5,44.2-98.5,98.5V160c0,15.4,11,28.3,25.5,31.3c4.5,23,18.9,42.4,38.5,53.8v4.1l-52.5,9.5
			c-15.2,2.8-28.7,11.8-37.1,24.8l-0.5,1.2l-21.9-8.5V328c-13.2,0-24,10.8-24,24v32c0,13.2,10.8,24,24,24v29.5l152,59.1l152-59.1
			V408c13.2,0,24-10.8,24-24v-32C424.3,338.8,413.5,328,400.3,328z M303.3,268.3l34.6,6.3c10.2,1.9,19.2,7.7,25.3,16.1l-77.4,30.1
			L303.3,268.3z M225,252.5c7.4,2.3,15.2,3.5,23.3,3.5s15.9-1.2,23.3-3.5L248.3,270L225,252.5z M236.1,280.9l-16.3,16.3l-10.6-31.8
			l5.1-0.9L236.1,280.9z M282.3,264.5l5.1,0.9l-10.6,31.8l-16.3-16.3L282.3,264.5z M328.3,173.8v-27.6c4.8,2.8,8,7.9,8,13.8
			S333.1,171,328.3,173.8z M168.3,173.8c-4.8-2.8-8-7.9-8-13.8s3.2-11,8-13.8V173.8z M168.3,120v9.1c-2.8,0.7-5.5,1.9-8,3.3V98.5
			c0-45.5,37-82.5,82.5-82.5c22,0,42.8,8.6,58.3,24.2l7.1,7.1l2.2,0.5c15.3,3.8,25.9,17.5,25.9,33.2v51.5c-2.5-1.4-5.2-2.6-8-3.3
			V120h-25.4c-21.7,0-42.4-10.4-55.4-27.7l-6.4-8.5l-15.9,15.9c-13.1,13.1-30.5,20.3-49,20.3H168.3z M184.3,176v-40.4
			c19.8-1.8,38.1-10.4,52.3-24.6l3.1-3.1c16,17.7,39.1,28.1,63.2,28.1h9.4v40c0,35.3-28.7,64-64,64S184.3,211.3,184.3,176z
			 M158.7,274.6l34.6-6.3l17.5,52.5l-77.4-30.1C139.4,282.3,148.5,276.5,158.7,274.6z M88.3,384v-32c0-4.4,3.6-8,8-8
			c13.2,0,24,10.8,24,24s-10.8,24-24,24C91.9,392,88.3,388.4,88.3,384z M240.3,476.3l-128-49.8v-21.9c14.1-6.2,24-20.2,24-36.6
			s-9.9-30.4-24-36.6v-31.7l128,49.8V476.3z M216.5,323.1l31.8-31.8l31.8,31.8l-31.8,12.4L216.5,323.1z M384.3,426.5l-128,49.8
			V349.5l128-49.8v31.7c-14.1,6.2-24,20.2-24,36.6s9.9,30.4,24,36.6V426.5z M408.3,384c0,4.4-3.6,8-8,8c-13.2,0-24-10.8-24-24
			s10.8-24,24-24c4.4,0,8,3.6,8,8V384z"/>
	</g>
</g>
</svg>
