<?xml version="1.0" encoding="utf-8"?>
<!-- Generator: Adobe Illustrator 25.3.1, SVG Export Plug-In . SVG Version: 6.00 Build 0)  -->
<svg version="1.1" id="Capa_1" xmlns="http://www.w3.org/2000/svg" xmlns:xlink="http://www.w3.org/1999/xlink" x="0px" y="0px"
	 viewBox="0 0 512 512" style="enable-background:new 0 0 512 512;" xml:space="preserve">
<style type="text/css">
	.st0{fill:#FFFFFF;}
</style>
<g>
	<path class="st0" d="M463.6,118.2h-78.4V61.9c0-19.5-15.9-35.4-35.4-35.4H162.1c-19.5,0-35.4,15.9-35.4,35.4v56.3H48.4
		C21.7,118.2,0,139.9,0,166.6v270.4c0,26.7,21.7,48.4,48.4,48.4h415.3c26.7,0,48.4-21.7,48.4-48.4V166.6
		C512,139.9,490.3,118.2,463.6,118.2L463.6,118.2z M146.8,61.9c0-8.5,6.9-15.4,15.4-15.4h187.7c8.5,0,15.4,6.9,15.4,15.4v56.3h-26
		V82.6c0-5.5-4.5-10-10-10H182.7c-5.5,0-10,4.5-10,10v35.7h-26L146.8,61.9z M192.7,118.2V92.6h126.6v25.7H192.7z M20,166.6
		c0-15.7,12.7-28.4,28.4-28.4h415.2c15.7,0,28.4,12.7,28.4,28.4v92.7c0,30.9-25.1,56-56,56h-10.7v-42.4c0-5.5-4.5-10-10-10h-60.9
		c-5.5,0-10,4.5-10,10v42.4H167.6v-42.4c0-5.5-4.5-10-10-10H96.7c-5.5,0-10,4.5-10,10v42.4H76c-30.9,0-56-25.1-56-56V166.6z
		 M405.3,282.9v74.8h-40.9v-74.8H405.3z M147.6,282.9v74.8h-40.9v-74.8H147.6z M492,437.1c0,15.7-12.7,28.4-28.4,28.4H48.4
		c-15.6,0-28.4-12.8-28.4-28.4V310.7c13.9,15.1,33.8,24.6,56,24.6h10.7v32.4c0,5.5,4.5,10,10,10h60.9c5.5,0,10-4.5,10-10v-32.4
		h176.8v32.4c0,5.5,4.5,10,10,10h60.9c5.5,0,10-4.5,10-10v-32.4H436c22.1,0,42.1-9.5,56-24.6L492,437.1L492,437.1z"/>
	<path class="st0" d="M137.4,191.7h237.2c5.5,0,10-4.5,10-10s-4.5-10-10-10H137.4c-5.5,0-10,4.5-10,10S131.9,191.7,137.4,191.7
		L137.4,191.7z"/>
</g>
</svg>
